<?xml version="1.0" encoding="UTF-8" standalone="no"?>
<svg
   version="1.1"
   id="Layer_1"
   x="0px"
   y="0px"
   viewBox="0 0 34 35.322285"
   xml:space="preserve"
   sodipodi:docname="customer-support.svg"
   width="34"
   height="35.322285"
   inkscape:version="1.1.2 (0a00cf5339, 2022-02-04)"
   xmlns:inkscape="http://www.inkscape.org/namespaces/inkscape"
   xmlns:sodipodi="http://sodipodi.sourceforge.net/DTD/sodipodi-0.dtd"
   xmlns="http://www.w3.org/2000/svg"
   xmlns:svg="http://www.w3.org/2000/svg"><defs
     id="defs9" /><sodipodi:namedview
     id="namedview7"
     pagecolor="#ffffff"
     bordercolor="#666666"
     borderopacity="1.0"
     inkscape:pageshadow="2"
     inkscape:pageopacity="0.0"
     inkscape:pagecheckerboard="0"
     showgrid="false"
     inkscape:zoom="4.264323"
     inkscape:cx="59.212212"
     inkscape:cy="61.322747"
     inkscape:window-width="1366"
     inkscape:window-height="690"
     inkscape:window-x="0"
     inkscape:window-y="0"
     inkscape:window-maximized="1"
     inkscape:current-layer="Layer_1" /><g
     id="g4"
     style="fill:#214154;fill-opacity:1"
     transform="scale(0.2874535)"><path
       d="m 111.85,108.77 c -3.47,4.82 -8.39,8.52 -14.13,10.48 -0.26,0.12 -0.55,0.18 -0.84,0.18 -0.28,0 -0.56,-0.06 -0.82,-0.17 v 0.06 c 0,1.96 -1.6,3.56 -3.57,3.56 h -7.68 c -1.96,0 -3.57,-1.6 -3.57,-3.56 V 64.19 c 0,-1.96 1.6,-3.57 3.57,-3.57 h 7.68 c 1.96,0 3.57,1.6 3.57,3.57 v 0.34 c 0.26,-0.12 0.54,-0.18 0.82,-0.18 0.22,0 0.44,0.04 0.64,0.1 v 0.01 c 4.36,1.45 8.26,3.92 11.42,7.11 V 59.15 c 0,-14.89 -4.99,-27.63 -13.81,-36.6 l -3.91,5.83 C 83.27,19.63 71.82,14.11 59.14,14.11 46.38,14.11 34.85,19.7 26.9,28.56 L 22.17,22.78 C 13.47,31.65 8.54,44.21 8.54,59.15 V 73.4 c 3.4,-4.08 7.92,-7.22 13.07,-8.93 v -0.01 c 0.21,-0.07 0.43,-0.11 0.64,-0.11 0.28,0 0.57,0.06 0.82,0.17 v -0.34 c 0,-1.96 1.61,-3.57 3.57,-3.57 h 7.68 c 1.96,0 3.57,1.6 3.57,3.57 v 55.13 c 0,1.96 -1.61,3.56 -3.57,3.56 h -7.68 c -1.96,0 -3.57,-1.6 -3.57,-3.56 v -0.06 c -0.25,0.11 -0.53,0.17 -0.82,0.17 -0.3,0 -0.58,-0.07 -0.83,-0.18 -5.74,-1.96 -10.66,-5.66 -14.13,-10.48 -1.82,-2.52 -3.24,-5.34 -4.17,-8.37 H 0 V 59.15 C 0,42.88 6.65,28.1 17.37,17.38 28.09,6.66 42.88,0 59.14,0 c 16.27,0 31.06,6.66 41.77,17.37 10.72,10.72 17.37,25.5 17.37,41.77 v 41.25 h -2.27 c -0.91,3 -2.33,5.84 -4.16,8.38 z"
       id="path2"
       style="fill:#214154;fill-opacity:1" /></g></svg>
