<?xml version="1.0" encoding="UTF-8" standalone="no"?>
<svg
   version="1.1"
   id="Layer_1"
   x="0px"
   y="0px"
   viewBox="0 0 10 5.4449751"
   xml:space="preserve"
   sodipodi:docname="down-arrow.svg"
   width="10"
   height="5.4449754"
   inkscape:version="1.1.2 (0a00cf5339, 2022-02-04)"
   xmlns:inkscape="http://www.inkscape.org/namespaces/inkscape"
   xmlns:sodipodi="http://sodipodi.sourceforge.net/DTD/sodipodi-0.dtd"
   xmlns="http://www.w3.org/2000/svg"
   xmlns:svg="http://www.w3.org/2000/svg"><defs
     id="defs9" /><sodipodi:namedview
     id="namedview7"
     pagecolor="#ffffff"
     bordercolor="#666666"
     borderopacity="1.0"
     inkscape:pageshadow="2"
     inkscape:pageopacity="0.0"
     inkscape:pagecheckerboard="0"
     showgrid="false"
     inkscape:zoom="7.8314149"
     inkscape:cx="61.483143"
     inkscape:cy="33.391156"
     inkscape:window-width="1366"
     inkscape:window-height="690"
     inkscape:window-x="0"
     inkscape:window-y="0"
     inkscape:window-maximized="1"
     inkscape:current-layer="Layer_1" /><g
     id="g4"
     transform="matrix(0.08138181,0,0,0.08138181,-5.0440216e-5,2.6017454e-4)"><path
       d="M 11.68,1.95 C 8.95,-0.7 4.6,-0.64 1.95,2.08 -0.7,4.8 -0.64,9.16 2.08,11.81 l 54.79,53.13 4.8,-4.93 -4.8,4.95 c 2.74,2.65 7.1,2.58 9.75,-0.15 0.08,-0.08 0.15,-0.16 0.22,-0.24 l 53.95,-52.76 c 2.73,-2.65 2.79,-7.01 0.14,-9.73 -2.65,-2.72 -7.01,-2.79 -9.73,-0.13 L 61.65,50.41 Z"
       id="path2" /></g></svg>
