<?xml version="1.0" encoding="UTF-8" standalone="no"?>
<svg
   id="Layer_1"
   data-name="Layer 1"
   viewBox="0 0 34.999999 35.000001"
   version="1.1"
   sodipodi:docname="experience.svg"
   width="35"
   height="35"
   inkscape:version="1.1.2 (0a00cf5339, 2022-02-04)"
   xmlns:inkscape="http://www.inkscape.org/namespaces/inkscape"
   xmlns:sodipodi="http://sodipodi.sourceforge.net/DTD/sodipodi-0.dtd"
   xmlns="http://www.w3.org/2000/svg"
   xmlns:svg="http://www.w3.org/2000/svg">
  <defs
     id="defs9" />
  <sodipodi:namedview
     id="namedview7"
     pagecolor="#ffffff"
     bordercolor="#666666"
     borderopacity="1.0"
     inkscape:pageshadow="2"
     inkscape:pageopacity="0.0"
     inkscape:pagecheckerboard="0"
     showgrid="false"
     inkscape:zoom="4.264323"
     inkscape:cx="61.322747"
     inkscape:cy="61.322747"
     inkscape:window-width="1366"
     inkscape:window-height="690"
     inkscape:window-x="0"
     inkscape:window-y="0"
     inkscape:window-maximized="1"
     inkscape:current-layer="Layer_1" />
  <title
     id="title2">date-15</title>
  <path
     d="M 23.242187,1.3472493 C 23.242187,0.60384115 23.977051,0 24.885661,0 c 0.90861,0 1.643473,0.60384115 1.643473,1.3472493 v 5.9016928 c 0,0.7434082 -0.734863,1.3472493 -1.643473,1.3472493 -0.90861,0 -1.643473,-0.6038411 -1.643473,-1.3472493 V 1.3472493 Z M 11.433105,29.454346 V 19.747314 H 9.3994141 v -2.133382 l 2.4039709,-1.031087 h 2.96224 v 12.871501 z m 9.65861,0.105387 c -0.643717,0 -1.350097,-0.03703 -2.124837,-0.113932 -0.774739,-0.07691 -1.526692,-0.150961 -2.258707,-0.230713 V 26.56901 h 4.537353 a 1.1393229,1.1393229 0 0 0 0.737712,-0.179443 0.68359375,0.68359375 0 0 0 0.233561,-0.430094 3.2242839,3.2242839 0 0 0 0.03418,-0.42155 V 25.00529 a 1.1735026,1.1735026 0 0 0 -0.165202,-0.672201 0.70638021,0.70638021 0 0 0 -0.626628,-0.239258 h -0.746256 a 0.90576172,0.90576172 0 0 0 -0.592448,0.153809 0.6636556,0.6636556 0 0 0 -0.216472,0.447184 H 16.74235 l 0.361735,-8.006592 h 7.961019 v 2.987875 h -5.109863 l -0.08545,1.942545 a 1.5039063,1.5039063 0 0 1 0.70638,-0.28483 5.7222493,5.7222493 0 0 1 0.823161,-0.06266 h 1.307373 a 2.9622396,2.9622396 0 0 1 1.63208,0.413004 2.5264486,2.5264486 0 0 1 0.945638,1.116537 3.9164225,3.9164225 0 0 1 0.307617,1.583659 V 26.2557 a 3.3410645,3.3410645 0 0 1 -0.489909,1.899821 2.7628581,2.7628581 0 0 1 -1.486816,1.065267 8.0749512,8.0749512 0 0 1 -2.523601,0.3361 z M 8.4338379,1.3614909 C 8.4338379,0.60384115 9.1687012,0 10.077311,0 c 0.90861,0 1.643474,0.60384115 1.643474,1.3472493 v 5.9016928 c 0,0.7434082 -0.734864,1.3472493 -1.643474,1.3472493 -0.9086098,0 -1.6434731,-0.6038411 -1.6434731,-1.3472493 V 1.3472493 Z M 1.8229167,11.040039 H 33.171387 V 6.1153158 A 0.85449219,0.85449219 0 0 0 32.926432,5.5257161 0.83170573,0.83170573 0 0 0 32.336833,5.2807617 h -2.999268 a 0.91145833,0.91145833 0 1 1 0,-1.8229166 h 3.004964 A 2.6660156,2.6660156 0 0 1 35,6.1153158 V 32.342529 A 2.6660156,2.6660156 0 0 1 32.342529,35 H 2.6574707 A 2.6660156,2.6660156 0 0 1 0,32.339681 V 6.1153158 A 2.6660156,2.6660156 0 0 1 2.6574707,3.4578451 H 5.867513 a 0.91145833,0.91145833 0 1 1 0,1.8229166 H 2.6574707 A 0.85449219,0.85449219 0 0 0 2.0678711,5.5257161 0.83170573,0.83170573 0 0 0 1.8229167,6.1153158 Z M 33.174235,12.865804 H 1.8229167 v 19.473877 a 0.85449219,0.85449219 0 0 0 0.2449544,0.5896 0.83170573,0.83170573 0 0 0 0.5895996,0.244954 H 32.339681 a 0.85449219,0.85449219 0 0 0 0.5896,-0.244954 0.83170573,0.83170573 0 0 0 0.244954,-0.5896 z M 14.375407,5.2807617 a 0.91145833,0.91145833 0 0 1 0,-1.8229166 h 6.106771 a 0.91145833,0.91145833 0 1 1 0,1.8229166 z"
     id="path4"
     style="fill:#214154;fill-opacity:1;stroke-width:0.284831" />
</svg>
