<?xml version="1.0" encoding="UTF-8" standalone="no"?>
<svg
   id="Layer_1"
   data-name="Layer 1"
   viewBox="0 0 77.699488 14.000001"
   version="1.1"
   sodipodi:docname="black-star-icon.svg"
   inkscape:version="1.1.2 (0a00cf5339, 2022-02-04)"
   width="77.699486"
   height="14.000001"
   xmlns:inkscape="http://www.inkscape.org/namespaces/inkscape"
   xmlns:sodipodi="http://sodipodi.sourceforge.net/DTD/sodipodi-0.dtd"
   xmlns="http://www.w3.org/2000/svg"
   xmlns:svg="http://www.w3.org/2000/svg">
  <defs
     id="defs9" />
  <sodipodi:namedview
     id="namedview7"
     pagecolor="#ffffff"
     bordercolor="#666666"
     borderopacity="1.0"
     inkscape:pageshadow="2"
     inkscape:pageopacity="0.0"
     inkscape:pagecheckerboard="0"
     showgrid="false"
     inkscape:zoom="4.4713712"
     inkscape:cx="61.166919"
     inkscape:cy="24.265487"
     inkscape:window-width="1366"
     inkscape:window-height="690"
     inkscape:window-x="0"
     inkscape:window-y="0"
     inkscape:window-maximized="1"
     inkscape:current-layer="Layer_1" />
  <title
     id="title2">black-star</title>
  <g
     id="g880"
     transform="translate(-0.2397634,-0.03995921)">
    <path
       d="M 7.9352397,0.27420932 9.8139784,4.667494 14.581338,5.0941541 a 0.38244044,0.38244044 0 0 1 0.218708,0.6680757 v 0 l -3.608087,3.1467676 1.066053,4.6609926 a 0.38244044,0.38244044 0 0 1 -0.582026,0.406343 L 7.5826774,11.531105 3.4774183,13.985894 A 0.38244044,0.38244044 0 0 1 2.908538,13.572381 v 0 L 3.9745907,8.9113878 0.37008964,5.7622298 A 0.38244044,0.38244044 0 0 1 0.59835877,5.0929589 L 5.347791,4.667494 7.2301152,0.27420932 a 0.38244044,0.38244044 0 0 1 0.7051245,0 z"
       id="path4"
       style="fill:#d1470f;fill-opacity:1;stroke-width:0.119513" />
    <path
       d="m 23.687584,0.27420932 1.878739,4.39328468 4.767359,0.4266601 a 0.38244044,0.38244044 0 0 1 0.218708,0.6680757 v 0 l -3.608087,3.1467676 1.066053,4.6609926 a 0.38244044,0.38244044 0 0 1 -0.582026,0.406343 l -4.093308,-2.445228 -4.105259,2.454789 a 0.38244044,0.38244044 0 0 1 -0.568881,-0.413513 v 0 L 19.726935,8.9113878 16.122434,5.7622298 A 0.38244044,0.38244044 0 0 1 16.350703,5.0929589 L 21.100135,4.667494 22.982459,0.27420932 a 0.38244044,0.38244044 0 0 1 0.705125,0 z"
       id="path867"
       style="fill:#d1470f;fill-opacity:1;stroke-width:0.119513" />
    <path
       d="m 39.439928,0.27420932 1.878739,4.39328468 4.767359,0.4266601 a 0.38244044,0.38244044 0 0 1 0.218708,0.6680757 v 0 L 42.696647,8.9089974 43.7627,13.56999 a 0.38244044,0.38244044 0 0 1 -0.582026,0.406343 l -4.093308,-2.445228 -4.105259,2.454789 a 0.38244044,0.38244044 0 0 1 -0.568881,-0.413513 v 0 L 35.479279,8.9113878 31.874778,5.7622298 A 0.38244044,0.38244044 0 0 1 32.103047,5.0929589 L 36.852479,4.667494 38.734803,0.27420932 a 0.38244044,0.38244044 0 0 1 0.705125,0 z"
       id="path869"
       style="fill:#d1470f;fill-opacity:1;stroke-width:0.119513" />
    <path
       d="M 55.192272,0.27420932 57.071011,4.667494 61.83837,5.0941541 a 0.38244044,0.38244044 0 0 1 0.218708,0.6680757 v 0 l -3.608087,3.1467676 1.066053,4.6609926 a 0.38244044,0.38244044 0 0 1 -0.582026,0.406343 L 54.83971,11.531105 50.734451,13.985894 A 0.38244044,0.38244044 0 0 1 50.16557,13.572381 v 0 L 51.231623,8.9113878 47.627122,5.7622298 A 0.38244044,0.38244044 0 0 1 47.855391,5.0929589 L 52.604823,4.667494 54.487147,0.27420932 a 0.38244044,0.38244044 0 0 1 0.705125,0 z"
       id="path871"
       style="fill:#d1470f;fill-opacity:1;stroke-width:0.119513" />
    <path
       d="m 70.944614,0.27420932 1.878739,4.39328468 4.767359,0.4266601 a 0.38244044,0.38244044 0 0 1 0.218708,0.6680757 v 0 l -3.608087,3.1467676 1.066053,4.6609926 a 0.38244044,0.38244044 0 0 1 -0.582026,0.406343 l -4.093308,-2.445228 -4.105259,2.454789 a 0.38244044,0.38244044 0 0 1 -0.568881,-0.413513 v 0 L 66.983965,8.9113878 63.379464,5.7622298 A 0.38244044,0.38244044 0 0 1 63.607733,5.0929589 L 68.357165,4.667494 70.239489,0.27420932 a 0.38244044,0.38244044 0 0 1 0.705125,0 z"
       id="path873"
       style="fill:#d1470f;fill-opacity:1;stroke-width:0.119513" />
  </g>
</svg>
