<?xml version="1.0" encoding="UTF-8" standalone="no"?>
<svg
   version="1.1"
   id="Layer_1"
   x="0px"
   y="0px"
   viewBox="0 0 45.000001 45.000001"
   xml:space="preserve"
   sodipodi:docname="three-horizontal-lines-icon.svg"
   inkscape:version="1.1.2 (0a00cf5339, 2022-02-04)"
   width="45"
   height="45"
   xmlns:inkscape="http://www.inkscape.org/namespaces/inkscape"
   xmlns:sodipodi="http://sodipodi.sourceforge.net/DTD/sodipodi-0.dtd"
   xmlns="http://www.w3.org/2000/svg"
   xmlns:svg="http://www.w3.org/2000/svg"><defs
     id="defs11" /><sodipodi:namedview
     id="namedview9"
     pagecolor="#ffffff"
     bordercolor="#666666"
     borderopacity="1.0"
     inkscape:pageshadow="2"
     inkscape:pageopacity="0.0"
     inkscape:pagecheckerboard="0"
     showgrid="false"
     inkscape:zoom="2.7305889"
     inkscape:cx="43.397231"
     inkscape:cy="64.63807"
     inkscape:window-width="1366"
     inkscape:window-height="690"
     inkscape:window-x="0"
     inkscape:window-y="0"
     inkscape:window-maximized="1"
     inkscape:current-layer="Layer_1"
     fit-margin-top="0"
     fit-margin-left="0"
     fit-margin-right="0"
     fit-margin-bottom="0" /><style
     type="text/css"
     id="style2">.st0{fill-rule:evenodd;clip-rule:evenodd;}</style><g
     id="g1118"
     transform="matrix(0.38753186,0,0,0.38753186,-10.072007,4.6549148)"><circle
       style="fill:#ffffff;fill-opacity:1;stroke:#214154;stroke-width:3;stroke-opacity:1"
       id="path905"
       cx="84.049881"
       cy="46.048046"
       r="56.559742" /><path
       class="st0"
       d="m 58.415111,22.622752 h 51.269529 c 2.40235,0 4.36524,1.962891 4.36524,4.365234 v 0 c 0,2.402344 -1.96289,4.365235 -4.36524,4.365235 H 58.415111 c -2.402344,0 -4.365235,-1.962891 -4.365235,-4.365235 v 0 c 0,-2.402343 1.962891,-4.365234 4.365235,-4.365234 z m 0,38.120117 h 51.269529 c 2.40235,0 4.36524,1.962891 4.36524,4.365235 v 0 c 0,2.402343 -1.96289,4.365234 -4.36524,4.365234 H 58.415111 c -2.402344,0 -4.365235,-1.962891 -4.365235,-4.365234 v 0 c 0,-2.402344 1.962891,-4.365235 4.365235,-4.365235 z m 0,-19.0625 h 51.269529 c 2.40235,0 4.36524,1.962891 4.36524,4.365235 v 0 c 0,2.402343 -1.96289,4.365234 -4.36524,4.365234 H 58.415111 c -2.402344,0 -4.365235,-1.962891 -4.365235,-4.365234 v 0 c 0,-2.397461 1.962891,-4.365235 4.365235,-4.365235 z"
       id="path4"
       style="fill:#214154;fill-opacity:1;stroke-width:0.488281" /></g></svg>
