<?xml version="1.0" encoding="UTF-8" standalone="no"?>
<svg
   version="1.1"
   id="Layer_1"
   x="0px"
   y="0px"
   viewBox="0 0 10 5.4447195"
   xml:space="preserve"
   sodipodi:docname="up-arrow.svg"
   width="10"
   height="5.4447198"
   inkscape:version="1.1.2 (0a00cf5339, 2022-02-04)"
   xmlns:inkscape="http://www.inkscape.org/namespaces/inkscape"
   xmlns:sodipodi="http://sodipodi.sourceforge.net/DTD/sodipodi-0.dtd"
   xmlns="http://www.w3.org/2000/svg"
   xmlns:svg="http://www.w3.org/2000/svg"><defs
     id="defs9" /><sodipodi:namedview
     id="namedview7"
     pagecolor="#ffffff"
     bordercolor="#666666"
     borderopacity="1.0"
     inkscape:pageshadow="2"
     inkscape:pageopacity="0.0"
     inkscape:pagecheckerboard="0"
     showgrid="false"
     inkscape:zoom="7.8314149"
     inkscape:cx="61.483143"
     inkscape:cy="33.391156"
     inkscape:window-width="1366"
     inkscape:window-height="690"
     inkscape:window-x="0"
     inkscape:window-y="0"
     inkscape:window-maximized="1"
     inkscape:current-layer="Layer_1" /><g
     id="g4"
     transform="matrix(0.08138103,0,0,0.08138103,-5.0439732e-5,-5.4172606e-4)"><path
       d="M 11.68,64.96 C 8.96,67.61 4.6,67.55 1.95,64.82 -0.7,62.1 -0.64,57.74 2.08,55.09 L 56.87,1.97 61.67,6.9 56.86,1.95 c 2.74,-2.65 7.1,-2.58 9.76,0.15 0.08,0.08 0.15,0.16 0.23,0.24 L 120.8,55.1 c 2.72,2.65 2.78,7.01 0.13,9.73 -2.65,2.72 -7,2.78 -9.73,0.14 L 61.65,16.5 Z"
       id="path2" /></g></svg>
